<svg xmlns="http://www.w3.org/2000/svg" viewBox="0 0 360 80" fill="none">
  <!-- Wave accent -->
  <path d="M0 62 C30 52, 60 72, 90 62 S150 52, 180 62 S240 72, 270 62 S330 52, 360 62" stroke="#5DB8C4" stroke-width="2.5" fill="none" opacity="0.5"/>
  <path d="M0 68 C30 58, 60 78, 90 68 S150 58, 180 68 S240 78, 270 68 S330 58, 360 68" stroke="#5DB8C4" stroke-width="1.5" fill="none" opacity="0.3"/>

  <!-- Sun -->
  <circle cx="32" cy="28" r="16" fill="#C4856A" opacity="0.9"/>
  <circle cx="32" cy="28" r="11" fill="#D4A574" opacity="0.6"/>

  <!-- Sun rays -->
  <line x1="32" y1="6" x2="32" y2="1" stroke="#C4856A" stroke-width="2" stroke-linecap="round" opacity="0.5"/>
  <line x1="47" y1="13" x2="50" y2="9" stroke="#C4856A" stroke-width="2" stroke-linecap="round" opacity="0.5"/>
  <line x1="17" y1="13" x2="14" y2="9" stroke="#C4856A" stroke-width="2" stroke-linecap="round" opacity="0.5"/>
  <line x1="54" y1="28" x2="58" y2="28" stroke="#C4856A" stroke-width="2" stroke-linecap="round" opacity="0.5"/>
  <line x1="10" y1="28" x2="6" y2="28" stroke="#C4856A" stroke-width="2" stroke-linecap="round" opacity="0.5"/>

  <!-- Text: "BEST THINGS TO DO" -->
  <text x="72" y="30" font-family="'Nunito', sans-serif" font-weight="700" font-size="22" fill="#2B3A42" letter-spacing="2">BEST THINGS TO DO</text>

  <!-- Text: "30A" large accent -->
  <text x="310" y="32" font-family="'Playfair Display', serif" font-weight="700" font-size="30" fill="#3A8C96">30A</text>

  <!-- Tagline -->
  <text x="72" y="50" font-family="'Nunito', sans-serif" font-weight="400" font-size="11" fill="#5A6872" letter-spacing="3">YOUR GUIDE TO SCENIC HIGHWAY 30A</text>
</svg>
